<svg xmlns="http://www.w3.org/2000/svg" xmlns:xlink="http://www.w3.org/1999/xlink" width="2000" zoomAndPan="magnify" viewBox="0 0 1500 449.999984" height="600" preserveAspectRatio="xMidYMid meet" version="1.0"><defs><g/></defs><g fill="#ffffff" fill-opacity="1"><g transform="translate(58.945335, 380.99997)"><g><path d="M 163.515625 -165.609375 L 90.09375 -165.609375 L 90.609375 -165.078125 L 91.125 -165.078125 C 91.820312 -164.035156 93.472656 -162.382812 96.078125 -160.125 C 98.679688 -157.875 101.890625 -155.015625 105.703125 -151.546875 C 113.691406 -144.597656 122.203125 -136.957031 131.234375 -128.625 C 135.742188 -124.457031 140.082031 -120.550781 144.25 -116.90625 C 148.414062 -113.257812 152.582031 -109.703125 156.75 -106.234375 C 157.789062 -105.191406 158.914062 -104.148438 160.125 -103.109375 C 161.34375 -102.066406 162.472656 -101.195312 163.515625 -100.5 Z M 406.1875 -280.171875 L 235.375 -280.171875 L 235.375 -241.640625 L 267.671875 -241.640625 C 268.359375 -241.640625 269.132812 -241.640625 270 -241.640625 C 270.875 -241.640625 271.742188 -241.640625 272.609375 -241.640625 C 273.484375 -241.640625 274.351562 -241.550781 275.21875 -241.375 C 276.082031 -241.195312 276.945312 -241.109375 277.8125 -241.109375 C 278.6875 -241.109375 279.554688 -241.109375 280.421875 -241.109375 C 281.296875 -241.109375 282.164062 -241.019531 283.03125 -240.84375 C 283.894531 -240.675781 284.757812 -240.503906 285.625 -240.328125 C 286.5 -240.160156 287.457031 -240.078125 288.5 -240.078125 C 289.539062 -240.078125 290.582031 -239.898438 291.625 -239.546875 C 293.707031 -239.203125 295.960938 -238.851562 298.390625 -238.5 C 300.816406 -238.15625 303.160156 -237.632812 305.421875 -236.9375 C 307.679688 -236.25 309.851562 -235.554688 311.9375 -234.859375 C 314.019531 -234.171875 316.273438 -233.304688 318.703125 -232.265625 C 328.078125 -228.441406 336.234375 -223.0625 343.171875 -216.125 C 346.992188 -212.300781 350.117188 -207.867188 352.546875 -202.828125 C 354.984375 -197.796875 356.546875 -192.332031 357.234375 -186.4375 L 357.234375 -149.984375 C 357.234375 -130.191406 343.867188 -108.664062 317.140625 -85.40625 L 316.625 -84.890625 L 267.671875 -46.34375 L 246.84375 -30.203125 L 246.84375 -88.53125 L 252.046875 -92.703125 L 284.859375 -118.21875 L 284.859375 -158.828125 C 284.859375 -160.222656 284.679688 -161.613281 284.328125 -163 C 283.285156 -163 282.070312 -163 280.6875 -163 L 235.375 -163 L 235.375 27.59375 L 213.515625 8.859375 L 107.265625 -84.890625 C 103.796875 -88.015625 98.9375 -92.523438 92.6875 -98.421875 C 62.488281 -125.503906 41.660156 -144.6875 30.203125 -155.96875 C 18.742188 -167.25 11.800781 -176.015625 9.375 -182.265625 C 7.976562 -185.390625 7.019531 -188.425781 6.5 -191.375 C 5.976562 -194.332031 5.804688 -197.285156 5.984375 -200.234375 C 6.160156 -203.179688 6.769531 -206.046875 7.8125 -208.828125 C 9.894531 -216.460938 13.539062 -222.710938 18.75 -227.578125 C 23.601562 -232.429688 29.15625 -235.898438 35.40625 -237.984375 C 41.3125 -240.421875 47.039062 -241.640625 52.59375 -241.640625 L 163.515625 -241.640625 L 163.515625 -280.171875 L -4.6875 -280.171875 L -8.859375 -283.8125 L -50.515625 -325.484375 L -72.390625 -347.875 L 368.703125 -347.875 L 372.34375 -344.21875 L 415.046875 -302.5625 L 437.953125 -280.171875 Z M 406.1875 -280.171875 "/></g></g></g><g fill="#ffffff" fill-opacity="1"><g transform="translate(421.916147, 380.99997)"><g><path d="M 117.171875 -344.21875 L 158.828125 -302.5625 L 180.703125 -280.171875 L 64.5625 -280.171875 C 64.21875 -279.828125 63.875 -279.304688 63.53125 -278.609375 C 62.132812 -276.179688 60.921875 -273.226562 59.890625 -269.75 C 58.492188 -265.582031 57.453125 -261.59375 56.765625 -257.78125 C 56.410156 -255.695312 56.0625 -253.785156 55.71875 -252.046875 C 57.101562 -249.273438 59.007812 -245.109375 61.4375 -239.546875 C 64.5625 -231.210938 68.382812 -220.800781 72.90625 -208.3125 C 77.414062 -195.8125 82.101562 -182.617188 86.96875 -168.734375 C 88.007812 -165.253906 89.132812 -161.78125 90.34375 -158.3125 C 91.5625 -154.84375 92.691406 -151.457031 93.734375 -148.15625 C 94.773438 -144.851562 95.816406 -141.640625 96.859375 -138.515625 C 97.898438 -135.398438 98.941406 -132.28125 99.984375 -129.15625 C 102.066406 -122.90625 103.972656 -117.175781 105.703125 -111.96875 C 107.441406 -106.757812 108.832031 -102.070312 109.875 -97.90625 C 113 -88.1875 114.5625 -82.285156 114.5625 -80.203125 C 114.5625 -51.035156 102.410156 -27.425781 78.109375 -9.375 C 74.640625 -6.59375 67.347656 -2.078125 56.234375 4.171875 C 45.816406 10.066406 31.582031 17.53125 13.53125 26.5625 L 3.640625 31.765625 L -2.609375 22.90625 L -28.640625 -12.5 L -64.578125 -60.921875 L -11.984375 -31.765625 C -5.035156 -27.941406 1.210938 -26.03125 6.765625 -26.03125 C 21.691406 -26.03125 35.753906 -34.882812 48.953125 -52.59375 L 49.46875 -71.34375 C 42.875 -87.664062 37.054688 -102.160156 32.015625 -114.828125 C 26.984375 -127.503906 22.5625 -138.875 18.75 -148.9375 C 11.101562 -169.425781 5.023438 -185.742188 0.515625 -197.890625 C -4.347656 -210.046875 -7.472656 -219.070312 -8.859375 -224.96875 C -10.597656 -231.21875 -11.46875 -235.90625 -11.46875 -239.03125 C -11.46875 -251.53125 -4.695312 -264.722656 8.84375 -278.609375 C 9.539062 -278.953125 10.238281 -279.472656 10.9375 -280.171875 L -45.828125 -280.171875 L -50 -283.8125 L -91.140625 -325.484375 L -113.015625 -347.875 L 113 -347.875 Z M 117.171875 -344.21875 "/></g></g></g><g fill="#ffffff" fill-opacity="1"><g transform="translate(529.193009, 380.99997)"><g><path d="M 152.578125 -280.171875 L 90.09375 -280.171875 L 90.09375 41.65625 L 67.6875 18.75 L 21.859375 -28.125 L 18.21875 -31.765625 L 18.21875 -280.171875 L -5.21875 -280.171875 L -9.375 -283.8125 L -51.5625 -325.484375 L -73.953125 -347.875 L 120.8125 -347.875 L 124.984375 -343.703125 L 162.46875 -302.046875 L 181.734375 -280.171875 Z M 152.578125 -280.171875 "/></g></g></g><g fill="#ffffff" fill-opacity="1"><g transform="translate(643.760536, 380.99997)"><g><path d="M 128.109375 -280.171875 L 109.875 -280.171875 C 93.5625 -280.171875 83.148438 -279.128906 78.640625 -277.046875 C 72.734375 -274.617188 69.78125 -269.0625 69.78125 -260.375 L 69.78125 -186.4375 C 71.863281 -187.820312 73.6875 -189.035156 75.25 -190.078125 C 76.8125 -191.117188 78.804688 -192.332031 81.234375 -193.71875 C 82.273438 -194.757812 83.488281 -195.710938 84.875 -196.578125 C 86.269531 -197.453125 87.570312 -198.320312 88.78125 -199.1875 C 90 -200.0625 91.390625 -201.019531 92.953125 -202.0625 C 94.515625 -203.101562 95.988281 -204.226562 97.375 -205.4375 C 98.769531 -206.65625 100.160156 -207.785156 101.546875 -208.828125 C 109.535156 -214.734375 118.21875 -221.503906 127.59375 -229.140625 C 134.53125 -235.035156 142.335938 -241.628906 151.015625 -248.921875 Z M 294.75 -280.171875 L 228.09375 -280.171875 L 228.09375 37.5 L 205.703125 15.625 L 159.359375 -30.71875 L 155.703125 -34.890625 L 155.703125 -189.5625 L 84.890625 -132.796875 C 79.679688 -128.972656 74.296875 -126.109375 68.734375 -124.203125 C 63.179688 -122.296875 57.28125 -121.34375 51.03125 -121.34375 C 45.476562 -121.34375 39.75 -122.382812 33.84375 -124.46875 C 27.945312 -126.550781 22.742188 -129.15625 18.234375 -132.28125 C 15.796875 -134.363281 13.625 -136.441406 11.71875 -138.515625 C 9.8125 -140.597656 7.988281 -142.859375 6.25 -145.296875 C 4.507812 -148.066406 3.207031 -151.101562 2.34375 -154.40625 C 1.476562 -157.707031 1.046875 -160.921875 1.046875 -164.046875 L 1.046875 -297.875 C 1.046875 -301.34375 1.046875 -304.378906 1.046875 -306.984375 C 1.046875 -309.585938 1.21875 -312.109375 1.5625 -314.546875 C 1.5625 -319.054688 1.734375 -322.523438 2.078125 -324.953125 L 2.609375 -325.484375 L 2.609375 -326 C 4.691406 -332.945312 8.507812 -338.328125 14.0625 -342.140625 C 19.613281 -345.960938 25.863281 -347.875 32.8125 -347.875 L 136.96875 -347.875 L 141.125 -342.65625 L 155.703125 -323.921875 L 155.703125 -347.875 L 254.140625 -347.875 L 257.78125 -344.21875 L 303.609375 -302.5625 L 328.609375 -280.171875 Z M 294.75 -280.171875 "/></g></g></g><g fill="#ffffff" fill-opacity="1"><g transform="translate(893.205282, 380.99997)"><g><path d="M 175.5 -165.609375 L 175.5 -260.375 C 171.332031 -265.582031 167.507812 -269.226562 164.03125 -271.3125 C 160.5625 -273.394531 156.914062 -274.4375 153.09375 -274.4375 C 152.40625 -274.4375 151.710938 -274.4375 151.015625 -274.4375 C 150.316406 -274.4375 149.617188 -274.347656 148.921875 -274.171875 C 148.234375 -274.003906 147.453125 -273.742188 146.578125 -273.390625 C 145.710938 -273.046875 144.847656 -272.785156 143.984375 -272.609375 C 143.117188 -272.441406 142.25 -272.097656 141.375 -271.578125 C 140.507812 -271.054688 139.644531 -270.617188 138.78125 -270.265625 C 137.914062 -269.921875 137.046875 -269.398438 136.171875 -268.703125 C 135.304688 -268.015625 134.351562 -267.5 133.3125 -267.15625 L 133.3125 -215.078125 C 134.695312 -213.335938 135.910156 -211.601562 136.953125 -209.875 C 139.035156 -207.09375 141.03125 -204.398438 142.9375 -201.796875 C 144.851562 -199.191406 146.765625 -196.585938 148.671875 -193.984375 C 150.578125 -191.378906 152.570312 -188.945312 154.65625 -186.6875 C 156.738281 -184.4375 158.734375 -182.179688 160.640625 -179.921875 C 162.554688 -177.671875 164.554688 -175.585938 166.640625 -173.671875 C 168.722656 -171.765625 170.804688 -169.769531 172.890625 -167.6875 Z M 175.5 -145.296875 L 115.609375 -145.296875 L 111.4375 -151.546875 L 99.984375 -171.859375 L 86.96875 -151.546875 L 83.3125 -145.296875 L -1.5625 -145.296875 L 24.984375 -168.203125 C 29.148438 -172.023438 33.054688 -175.757812 36.703125 -179.40625 C 40.347656 -183.050781 43.5625 -186.609375 46.34375 -190.078125 C 49.125 -193.546875 51.46875 -196.929688 53.375 -200.234375 C 55.28125 -203.535156 56.84375 -206.832031 58.0625 -210.125 C 59.28125 -213.425781 60.234375 -216.550781 60.921875 -219.5 C 61.617188 -222.445312 61.96875 -225.3125 61.96875 -228.09375 C 61.613281 -238.507812 61.613281 -247.363281 61.96875 -254.65625 C 61.96875 -259.863281 61.789062 -264.203125 61.4375 -267.671875 C 59.363281 -270.796875 56.585938 -272.878906 53.109375 -273.921875 C 45.128906 -276.003906 36.972656 -277.738281 28.640625 -279.125 L 26.03125 -279.65625 L 23.953125 -281.21875 C 19.085938 -284.34375 14.398438 -287.46875 9.890625 -290.59375 C 5.378906 -294.0625 0.519531 -297.53125 -4.6875 -301 C -6.769531 -302.382812 -8.765625 -303.859375 -10.671875 -305.421875 C -12.585938 -306.984375 -14.410156 -308.546875 -16.140625 -310.109375 C -17.878906 -311.671875 -19.53125 -313.144531 -21.09375 -314.53125 C -22.65625 -315.925781 -24.128906 -317.40625 -25.515625 -318.96875 C -26.910156 -320.53125 -28.128906 -322.175781 -29.171875 -323.90625 C -30.210938 -325.644531 -31.078125 -327.382812 -31.765625 -329.125 L -41.140625 -347.875 L 78.625 -347.875 L 82.28125 -342.65625 L 95.8125 -323.921875 C 99.976562 -331.898438 105.789062 -337.882812 113.25 -341.875 C 120.71875 -345.875 129.316406 -347.875 139.046875 -347.875 C 151.535156 -347.875 163.6875 -344.054688 175.5 -336.421875 L 175.5 -347.875 L 267.671875 -347.875 L 271.3125 -343.703125 L 311.9375 -302.046875 L 333.28125 -280.171875 L 247.359375 -280.171875 L 247.359375 36.453125 L 225.484375 15.109375 L 179.65625 -29.6875 L 175.5 -33.328125 Z M 175.5 -145.296875 "/></g></g></g><g fill="#ffffff" fill-opacity="1"><g transform="translate(1165.563568, 380.99997)"><g><path d="M 309.84375 -280.171875 L 254.125 -280.171875 L 254.125 33.84375 L 232.25 13.015625 L 186.421875 -30.71875 L 182.265625 -34.375 L 182.265625 -55.71875 L 148.9375 -56.25 L 118.734375 -56.765625 L 113.515625 -56.765625 L 109.875 -60.40625 L 39.046875 -127.59375 C 30.023438 -136.269531 23.429688 -146.507812 19.265625 -158.3125 C 15.097656 -170.46875 14.054688 -182.097656 16.140625 -193.203125 C 18.222656 -205.359375 23.953125 -215.597656 33.328125 -223.921875 C 38.179688 -228.441406 43.992188 -231.742188 50.765625 -233.828125 C 57.535156 -235.910156 64.914062 -236.953125 72.90625 -236.953125 L 182.265625 -236.953125 L 182.265625 -280.171875 L -4.6875 -280.171875 L -8.34375 -284.34375 L -48.953125 -326 L -70.3125 -347.875 L 275.484375 -347.875 L 279.125 -343.703125 L 319.21875 -302.046875 L 340.578125 -280.171875 Z M 182.265625 -56.25 L 182.265625 -159.359375 L 110.921875 -159.359375 C 105.359375 -159.359375 100.5 -157.96875 96.34375 -155.1875 C 93.90625 -153.800781 92.6875 -150.847656 92.6875 -146.328125 C 93.039062 -145.640625 94.082031 -143.992188 95.8125 -141.390625 C 97.550781 -138.785156 100.414062 -135.140625 104.40625 -130.453125 C 108.394531 -125.765625 112.992188 -120.988281 118.203125 -116.125 C 119.597656 -114.738281 121.25 -113.175781 123.15625 -111.4375 C 125.0625 -109.707031 126.96875 -107.972656 128.875 -106.234375 C 130.789062 -104.492188 132.789062 -102.582031 134.875 -100.5 C 136.257812 -98.769531 137.90625 -97.125 139.8125 -95.5625 C 141.726562 -94 143.640625 -92.257812 145.546875 -90.34375 C 147.453125 -88.4375 149.445312 -86.53125 151.53125 -84.625 C 153.613281 -82.71875 155.695312 -80.722656 157.78125 -78.640625 Z M 182.265625 -56.25 "/></g></g></g></svg>